<svg id="OBJECTS" xmlns="http://www.w3.org/2000/svg" viewBox="0 0 124.94 124.8"><defs><style>.cls-1{fill:#ffe3db;}.cls-2,.cls-3,.cls-4{fill:none;stroke:#000;}.cls-2{stroke-linecap:round;stroke-linejoin:round;stroke-width:3px;}.cls-3,.cls-4{stroke-linejoin:bevel;}.cls-3{stroke-width:2px;}.cls-4{stroke-width:0.75px;}</style></defs><rect class="cls-1" y="7.61" width="117.19" height="117.19"/><rect class="cls-2" x="6.25" y="1.5" width="117.19" height="117.19"/><rect class="cls-3" x="14.48" y="64.18" width="10.37" height="29.88"/><rect class="cls-3" x="84.6" y="64.18" width="10.37" height="29.88"/><rect class="cls-3" x="24.84" y="79.12" width="29.88" height="14.94"/><rect class="cls-3" x="54.72" y="79.12" width="29.88" height="14.94"/><polygon class="cls-3" points="19.66 64.18 19.66 54.42 54.72 54.42 54.72 79.12 24.84 79.12 24.84 64.18 19.66 64.18"/><polygon class="cls-3" points="54.72 54.42 89.78 54.42 89.78 64.18 84.6 64.18 84.6 79.12 54.72 79.12 54.72 54.42"/><line class="cls-3" x1="19.66" y1="94.06" x2="19.66" y2="98.32"/><line class="cls-3" x1="89.78" y1="94.06" x2="89.78" y2="98.32"/><line class="cls-4" x1="24.84" y1="86.59" x2="84.6" y2="86.59"/><rect class="cls-3" x="99.39" y="86.59" width="14.63" height="3.96"/><line class="cls-3" x1="106.7" y1="88.57" x2="106.7" y2="42.99"/><polygon class="cls-3" points="115.22 42.99 97.86 42.99 102.44 26.53 110.64 26.53 115.22 42.99"/><rect class="cls-3" x="26.44" y="26.53" width="56.55" height="16.46"/><path class="cls-3" d="M375.17,94.71c2.57,0,2.57,2,5.14,2s2.57-2,5.14-2,2.57,2,5.14,2,2.57-2,5.14-2,2.57,2,5.14,2,2.57-2,5.14-2,2.57,2,5.14,2,2.57-2,5.14-2,2.57,2,5.14,2,2.58-2,5.15-2,2.57,2,5.15,2" transform="translate(-348.73 -63.08)"/><path class="cls-3" d="M375.17,100.2c2.57,0,2.57,2,5.14,2s2.57-2,5.14-2,2.57,2,5.14,2,2.57-2,5.14-2,2.57,2,5.14,2,2.57-2,5.14-2,2.57,2,5.14,2,2.57-2,5.14-2,2.57,2,5.14,2,2.58-2,5.15-2,2.57,2,5.15,2" transform="translate(-348.73 -63.08)"/></svg>